<svg width="77" height="75" viewBox="0 0 77 75" fill="none" xmlns="http://www.w3.org/2000/svg">
<path d="M75.0215 37.5C75.0215 57.354 58.5917 73.5 38.2607 73.5C17.9298 73.5 1.5 57.354 1.5 37.5C1.5 17.646 17.9298 1.5 38.2607 1.5C58.5917 1.5 75.0215 17.646 75.0215 37.5Z" stroke="black" stroke-width="3"/>
<path d="M12.5896 45.973V44.7725H13.239C13.4883 44.7725 13.6982 44.7397 13.8688 44.6741C14.0394 44.5954 14.1706 44.4773 14.2624 44.3198C14.3542 44.1493 14.4002 43.9394 14.4002 43.6901V34.2043C14.4002 33.955 14.3542 33.7517 14.2624 33.5942C14.1837 33.4368 14.0787 33.3187 13.9475 33.24C13.8294 33.1613 13.6982 33.1219 13.5539 33.1219H12.5896V31.9214H19.1234L21.7998 40.128L24.2598 31.9214H30.7149V33.1219H29.6718C29.5538 33.1219 29.4357 33.1613 29.3176 33.24C29.2126 33.3056 29.1208 33.4106 29.0421 33.5549C28.9634 33.6861 28.924 33.8566 28.924 34.0666V43.8475C28.924 44.0443 28.9568 44.2149 29.0224 44.3592C29.088 44.4904 29.193 44.5954 29.3373 44.6741C29.4816 44.7397 29.6587 44.7725 29.8686 44.7725H30.7149V45.973H23.6301V44.7725H23.9253C24.2008 44.7725 24.4173 44.7331 24.5747 44.6544C24.7453 44.5757 24.8634 44.451 24.929 44.2805C25.0077 44.0968 25.047 43.8606 25.047 43.572V34.224L21.4653 45.973H19.9106L16.073 34.1846V43.5917C16.073 43.9328 16.132 44.1886 16.2501 44.3592C16.3682 44.5298 16.5322 44.6413 16.7421 44.6938C16.9651 44.7462 17.2341 44.7725 17.549 44.7725H17.7261V45.973H12.5896ZM37.8721 43.3162V39.7147H34.251V38.16H37.8721V34.5586H39.4465V38.16H43.0873V39.7147H39.4465V43.3162H37.8721ZM46.3759 45.973V44.7725H46.5136C46.7367 44.7725 46.9466 44.7397 47.1434 44.6741C47.3402 44.5954 47.5239 44.4576 47.6944 44.2608C47.865 44.064 48.0159 43.7819 48.1471 43.4146L52.3389 31.9214H55.901L59.9157 43.4539C60.0338 43.7557 60.1715 44.005 60.329 44.2018C60.4864 44.3986 60.6635 44.5429 60.8603 44.6347C61.0703 44.7266 61.2933 44.7725 61.5295 44.7725H61.7459V45.973H54.4643V44.7725H55.2515C55.4615 44.7725 55.6517 44.7331 55.8223 44.6544C55.9928 44.5757 56.0781 44.4117 56.0781 44.1624C56.0781 44.0312 56.065 43.9066 56.0387 43.7885C56.0125 43.6573 55.9797 43.5392 55.9403 43.4342C55.9141 43.3293 55.8879 43.2506 55.8616 43.1981L55.2515 41.4072H50.7645L50.3119 42.8242C50.2856 42.9291 50.2463 43.0603 50.1938 43.2178C50.1544 43.3752 50.1151 43.5392 50.0757 43.7098C50.0495 43.8672 50.0363 44.0115 50.0363 44.1427C50.0363 44.3395 50.0888 44.497 50.1938 44.615C50.2987 44.72 50.489 44.7725 50.7645 44.7725H51.7288V45.973H46.3759ZM51.1975 40.0493H54.8186L53.6968 36.2904C53.6312 36.0542 53.5591 35.8181 53.4803 35.5819C53.4147 35.3326 53.3491 35.0768 53.2835 34.8144C53.2179 34.5389 53.1589 34.2568 53.1064 33.9682C53.0539 34.1781 52.9949 34.388 52.9293 34.5979C52.8768 34.7947 52.8243 34.9915 52.7719 35.1883C52.7194 35.3851 52.6603 35.5754 52.5947 35.759C52.5423 35.9296 52.4898 36.1002 52.4373 36.2707L51.1975 40.0493Z" fill="black"/>
</svg>
